<mxfile host="app.diagrams.net" modified="2021-06-01T12:44:50.961Z" agent="5.0 (Macintosh; Intel Mac OS X 10_15_7) AppleWebKit/537.36 (KHTML, like Gecko) Chrome/91.0.4472.77 Safari/537.36" etag="genbaWd4cV6luU1EyQtS" version="14.7.3" type="github">
  <diagram name="Page-1" id="c37626ed-c26b-45fb-9056-f9ebc6bb27b6">
    <mxGraphModel dx="1346" dy="645" grid="1" gridSize="10" guides="1" tooltips="1" connect="1" arrows="1" fold="1" page="1" pageScale="1" pageWidth="1100" pageHeight="850" background="none" math="0" shadow="0">
      <root>
        <mxCell id="0" />
        <mxCell id="1" parent="0" />
        <mxCell id="1c7a67bf8fd3230f-56" style="edgeStyle=none;html=1;labelBackgroundColor=none;startFill=0;endArrow=none;endFill=0;strokeWidth=2;fontFamily=Verdana;fontSize=12;entryX=0.551;entryY=0;entryDx=0;entryDy=0;entryPerimeter=0;exitX=0.07;exitY=0.4;exitDx=0;exitDy=0;exitPerimeter=0;" parent="1" source="1c7a67bf8fd3230f-13" target="94u92ZBypq8RZjH0Q64Z-2" edge="1">
          <mxGeometry relative="1" as="geometry">
            <mxPoint x="600" y="415" as="sourcePoint" />
            <mxPoint x="579.6625766871166" y="520" as="targetPoint" />
          </mxGeometry>
        </mxCell>
        <mxCell id="1c7a67bf8fd3230f-13" value="internet" style="ellipse;shape=cloud;whiteSpace=wrap;html=1;rounded=0;shadow=0;comic=0;strokeWidth=1;fontFamily=Verdana;fontSize=12;" parent="1" vertex="1">
          <mxGeometry x="610" y="360" width="180" height="60" as="geometry" />
        </mxCell>
        <mxCell id="1c7a67bf8fd3230f-55" style="edgeStyle=none;html=1;labelBackgroundColor=none;startFill=0;endArrow=none;endFill=0;strokeWidth=2;fontFamily=Verdana;fontSize=12;entryX=0.875;entryY=0.5;entryDx=0;entryDy=0;entryPerimeter=0;" parent="1" source="1c7a67bf8fd3230f-46" target="1c7a67bf8fd3230f-13" edge="1">
          <mxGeometry relative="1" as="geometry" />
        </mxCell>
        <mxCell id="1c7a67bf8fd3230f-46" value="" style="shape=mxgraph.cisco.routers.router;html=1;dashed=0;fillColor=#036897;strokeColor=#ffffff;strokeWidth=2;verticalLabelPosition=bottom;verticalAlign=top;rounded=0;shadow=0;comic=0;fontFamily=Verdana;fontSize=12;" parent="1" vertex="1">
          <mxGeometry x="920" y="393.5" width="78" height="53" as="geometry" />
        </mxCell>
        <mxCell id="94u92ZBypq8RZjH0Q64Z-2" value="" style="shape=image;verticalLabelPosition=bottom;labelBackgroundColor=#ffffff;verticalAlign=top;aspect=fixed;imageAspect=0;image=data:image/jpeg,/9j/4AAQSkZJRgABAQAAAQABAAD/2wCEAAoHCBUWFRgSFRUZGRgYGBgaGBgYGBocHBkaGBgZGhgYGhocIS4lHB4rIRoYJjgmLC8xNjU1GiU7QDs0Py40NTEBDAwMEA8QHhISHjQhISE0NjQ0NDQ0NDQ0NDQ0NDQ0NTQxMTE0NDE/NzExMTExPzQ0NDQ0MTQ0NDQ2ND8xNTQ0Pf/AABEIAG8BxQMBIgACEQEDEQH/xAAcAAEAAQUBAQAAAAAAAAAAAAAABAIDBQYHAQj/xABLEAACAQIDAwgGBgYIBAcAAAABAgADEQQSITFBUQUGEyIyYXGBB0JykaGxI1JissHRFDNDgpLCFyREY3Oi4fAWg9LxFSU1hJOjs//EABkBAQEBAQEBAAAAAAAAAAAAAAABAgMFBP/EACIRAQEAAgAHAAMBAAAAAAAAAAABAhEDBBIhMUFREzKxwf/aAAwDAQACEQMRAD8A7NERAREQEREBERAREQEREBERAREQEREBERAREQEREBESzWrqou7Ko4sQB8YF6JhcTzowVPtYmlcbg4Y+5bmYqv6Q8CvZd39mm4+LhRA2+Jz2t6T6PqYeoeGdkX7paQ6XpPe5zYZSN1qpFh33Q3hNunROdJ6TRvwx8qoPzWXh6Sqe/D1PJlP5Qbb9E0ml6RsOR1qNYHuCEe/OPlL/APSDhLXy1vDIt/vWg3G4RNRXn/hDuqjxQfg0urz7wR9Zx403/AGDbaImuLz2wJ/asPGnU/6ZeTndgj+3Hmjj5rCs9ExK84sIdmIp+bgfAy+nLGGOzEUj/wAxPzgT4kZcdSOyoh8HX85dWop2MD4EQLkTyewEREBERAREQEREBERAREQEREBERAREQEREBERAREQEREBEx2N5aw1L9biKSe3URfgTMNiuf/Jyf2gP/hq7/FVI+MDaonPsV6VMMv6ujWfvIRR8Wv8ACYfFeleqf1eGReBd2f3hQvzgdZicOxPpH5QbY9On7FIfzl5iMRznxz9rF1j7L5PuZYTb6EeoFFyQBxJt85i8XzlwVPR8VRU8OkUn3A3nz1WqM/bZn9ti33iZQBaDbuGJ9I/Jymwqs5+xSqEfxFQvxmJxPpWoDSnh6rd7mmg+DMfhOSz2B0LE+lTEH9Xh6a97sz/LLMTifSDyg+ysqexTT5uGM1SewMriecOLqdvFVj3CoyA+SECY52LG7kseLEsfeZRPQYFYlQMtgyoGBcDSsNLAMqBgXw0qDyyDKgZGUhXlQeRwZUDAkB5WryMGlYaBKDytXkQPLgeBLRhKxaRFeVrUlEsIvCXFRf8AdpEV5WKkCcjkbGYeBI+UkLi6g2Vag8Hf85jA/fLiv3w0yycq1x+3qebv+clJy3iB+3bzJPzEwYfvlQeBsCcv4kftj5hT81l8c5MSPXB/dT8hNcWoZWKhgbMnOfEcFPkv4ES4vOuvvRT+6fwaawtUy4tYwNoXndU30v8AK/8ArLq87zvpfeHzWastcy/TdjsEDZl53psKAfv2+ayQOc6X/Vt5Efjaai+KVdrXPAfnItflE8co3nh5wm29nnLSBsVcC9r9X5X+Uz043g6hZ0BueugO/ayjWdkhYREQpETXuefL/wChYV8SFDMCqqp2Zm3m24AE99t0DYYnAv6WsdUOUdGl/qKNPN80tUOe/KRa7Ykhe5EYHW1wTbQeG7ygfQUoZgBcmwG0mcDxHPDHOLNim8FvTPfrTG3dt292sw9fPVP0jLUPF6tRvvodIHfsZznwVI2fFUVP1ekUt/CDeYXFeknAJor1Kh+xTb5vlE4syKpCtoTsCnMNl7bBY909KLx+B/KEdOxfpYT9lhXbvqOqfBQ0wuL9KGNbsJQpjvV3PvLAfCaUyL9YSzSqq56uYjiEYi/C4G2BsmK578oPtxLqOCKifELf4zDYrlGtU/WVqj+27sPcTaRiQNpI9pXHzWeIwJsGBPC+u7d5j3wCqBsAE9vK+jPCUlYHkT3LPLQERaLQEREBPZ5ED2eymLwKwZ7eUXi8C5ee3lu89vAuAz0GWwZUBArBlWYcRKBLgMD0N3ysXlFhwngQcB7hIyuiVAy0FHCV5fH3n85RdBlQMsAePvMqXxPw/KQXwZUDLIvxPuH5SoFvrD+H/WVpfBlatLALcR7j+c9DN3e8j8DAkB5WtSRwzfVH8X+kqDneh8iPxMCSKkrDyMj32oR3nL+BkhbQLivLgqTyjSzGygk8BrJBoonbcA/VXrN+Q98ChXMlpSa2ZiFXi2l/DjIT8phQRTUL9o9Zvfaw90hGu73a5PFidB4sdIGYfGInZ65G86DyG0yK+Pd+qL+A2AcdNg7zMcayLtJc8ASq+/tMPd5yrD4sVKTsMy9G6KVsoRi5qWK2N7hUFyRtJgTC4AszX1vZdeG1tm7deeGrpYaD/e0zHo8kUrswRQWZjYKoJJPAAamUZTm8cuJG09IaVO24WrI9/wDKR5idhmgc2uaNUOleucmRgy0xYsSNRnOxRfcL34ib/IQiIhSaB6Zmtyce+qn3Xm/zn3pq/wDTv+cn3KkDgdJ1PVNMeVwTNiwOOYIi9IUtkAQ0lbJaoLdbIScoAfxHGa9h8W2oL6d9pnlCFaRUPmKkuxYFH6zDMgAFgCCPLedZUXzj+qL1Etk7JpICPoW6n6sa2vTHew3ay+2MBNi+HY5tuUanpKYvpbQnKfZVt1wb3J2DptZqlSggOYZa1ZqZaxtnUgW0uBbNu757i8Gq3ZXpMCRZaGJSqEGo6/WzG+ljbjfdIMRVrKHpPlpsozHKM2VhlftdYm+3fuE2rnJyomFCU3ZKjsFZ6aGqTTDKrhGzuRqG0I10vNYq1Kbg5abK6I+Zi4ZWJW1wLAqdDxm686fRzi8ZiP0mk9AK1OgApZlYZKSLdhlIvcHytCsVzipqtKjUXo3SsGak9Ko7BQhTOjqyA5+uu03GUjTfrWBa+bPZtTZqeU+o/aDEe0ddgYb7zaecvIlTB4XB4WrlzoMUxym4OerSI18DNSwCUxn6RatMnNpSBZSCjAggOu2+XTTrbhAyLut9OmG3aEO9P7wH1ddNoThrE5VqnIbOx8dCOuxGoJ3EX12lt0mEUWv/AFmrtPaoVBfro173baVRv3PIwOVFUL1avSXBv1XXLeozG+ZRqWZjv28IROp4a9toGgJ8hc8Ta8qfDMLgZyOK57SjG8g4jErTNGmXCsUYi1lZygXNvF+NpFqc18VRDo9BhdVysBdGIdSQKg6pawOl76HTSTbMxtku0x8MygG51F9+ncb7DKOiaxbMLA23bdNxFztEiYHk3Eo9F9crujDJWR7glSLojErt3iR6eGxvRtUAxGVbAkM1gdL5lJuO0Lab421036ydKgzmy6nbYAbLgcBvI98o6M7bj3f6yJUbE5widKfo0LBULkfRpmY6H1jqe+XuTqruhL9oM47IXYE0IAGwk7dmsu0ss9ouKdgbBkXiTtsNpF5fFMjQudLjrJY6OFN7NoRe54Hq7dZGxfaByFrMesCQVse7XvmRfHub/SsRc2LodR0qWJzKdoAqH2OIEKjBD9ddu8MLdYi+jHYBmPcbC5uACsdjJu2lxa99vVOy2vC42y+uNbN+tXavaSnbWu1ibpftDpD3NfbPaWJJK2WidadrqN9RygNmGmbMWvpZhfTQRUdFc27Ivba9rXBbW6i2gN+BsNpAjrcAdmx03oX2XGxQSeGzbpJNCsDkAo0zfo7C7i+ZXZAT0h2hWvf6ovuntN1IX+rFtE2VnFwUd19Q9pQXPsbtQaIT1SozMMoFtTbeAQBYm5sQbcDPFxDHajjxRuF/kQfAiMdUFhkXKcq3zuGGqqQwui9q5bh1hawkvNQ3rXBtrZaRBvSsdrjQmx9nTvhEU4niD/Cw/CP0xOI98mgUCNa9QE3uGp3vmp5TfI52sAD9mw1teVNTpG/9aHrHrUsRvpgHUIdrDL3DUa6QIQxS8fiPzla1hxkupgEIJGKw5vmPWBQ/qgdM1MW16o3KbtoSZS/Jd75Xwjdq2WtRH7INpcjYRYX9a5PVN5DS0H75Vn75TypgHp0+kyUly6F6dUMWLJmF1zsBbZ1QBe+3Qze8N6O0dFcYp1JVSQVpkXKgk7NBfvlGkB+8T0VDM/zk5oNhaD1xiA4TKShQA2ZgvaB268JhcPybUdc6agErsXaNo7Q4wlsnlQHMqFSVtyVXHqfD8iZbbA1htQ+5/wAo0m5fasVZUKokZ6VQbUPvt87Sm7/VPvT84aTVqiVrVEx/SN9Vv4b/ACnjYq2248UYQmmVWoOPzlauOMw641eI+IlxcYvFf4oNMsKg/wC0dJMauLXh/mEy+DxNM2FOm9RzvcDKD3KpN/M+UKuYbDO+qjQbWNgo8WOgkm9JO02duC6J5sdT5DzkHG4uoSVckZdMtrBfBRoPKR8lus5CjcW2nwXafHZ3wMhW5UcjItkXeq6Dz+t5kyHmJGbYPrMbDy3nyBlFCujuKaEBiBlaoCbkuqhVRQQD1r7CeqZCxLtmYObsCQTe+oNjrAyObql0TOBe7N2RlKBupfXWom36w02yM+JZtpvbZwHgNg8pGwNRUFU2JeohQkgdUdJTcWO03CMD5TwNAvlpUKxyhbnLuF9L3YjTxdv4jxmW5v8ANTE4shlXJTP7VwQtvsDa/lp3idQ5vcz8PhbMB0lUftHsSPYGxPLXiTA0bm/zLxFez1AaNM63cddh9lPV8Wt4GdI5H5BoYYWpIAxFmc6u3ix3dwsO6ZaIUiIgIiICc+9NR/8ALx/jJ9ypOgzF8u8jUsXRbD1lurEHvUjYw7/zMD5ZoYonqlUPC6ibDTdStJRnzKhDhmUopubLTAAspADWN+1bcZ0ar6GcPe6Yh19pA3yZZT/RO6m64pT402H85lRonLypVweGpIPpqT1y/U7a1KhZCKl9QBbqnj3S5zYoU6OHxIrEdNUFNaKhHYgK13fpFBVQVa1iQTl8L7pV9GeIHZq0z4sw/kMiv6OcaNnRnwf81Eg0JcMwWo2W2ZSB1lJJAb1QcwHfaTvSDhqv6a1WmrFKlOiyNSYtnVaKKX6pNhdSP3Zsz8xMeuylfwen/wBciVeaWPX+zOfCx+6TGhF5Rw9VcDgadYOKmTEsQ981mrqUOutioFpgcHh3TNkBZTe4amjgXFjqykjQ22zPVeQsWvaw1b/43On8OyW6FN6RzVMPU0DaMlhc5bHrKQdh0tv2yjGvXYm5SntJP0TDaysey67wPIkbCRIWPYstsijYOqri/XJ1zO3Hu0HACZ1cbQC5CXHUCscqkhwW1U5AQuo338dJAzqx7W5RcAm5CgH8ZE3qbrJ0uddXBoaSKhWsQWZiQ4C5dFbYBt2g2vNhxXP80irKiVAh6YfSKCWq3Rw+S421HNrD1fPS6603tnCsBe2YMCAbXsQRwlpsPRGZVRcrW9ZwSFYFb9YgHQbJmypjlJJL/G8UefBNMdJTLdOnRgh1GTUkMFzsDbpDrlU2VRu0kYbnnTqq2K/RCKS1FBUJTOuTKQXyWuc17E+otjtE56eTaCujJm0sT1wAGudNVJO4375SvJCZCQzjUAoHVibA2a2QA2u2/S54xqtdeP1vlXnlyfmUChlfK5Z2pC6rUAdEGRW1XMm63UtMRzl5Swtco+GQoAjK4yZDnBXMSN99Nn1ZrQ5LLOXSq6EJa5VQbBAjAHOL3FxbeDPcPRyLlzlu0blcu0ppbMeHxiRMrLO1Vug3ge7/AH75ZWoDupn2X010NrHYBqO+8vHXTxF9wzKVue65Exh5AfdUom/95l9+cC00rINTNiwQ6aWVmI4Br+Ra3iJQ6rvR/AEE2G0ajado4bNZGTkisqOg6NmZkIy1aTXASqp9b7Q75bqcm4y5bo6hOlyovut6vhJtdJgw4/2B+UoGTbnZd+oIsLZb6HxHcD3y9TpsqoHVg4Q5gwObNdyLg637PwmEONqLoWIO8EAHZ3jxlGSqUFba9wLAnrjKQALbdbWAHlaXuta3SDYdL/WTo2HZ+p1fCQcJygSjs5BsUGqrvz33dyyy/KZJuEQDTaCdba7CIGWdnO9W7WtwQc1PoiRs9QAD37Z7Uqu17omufUKB26Yp8dygEcG1lvB1s6K1gNWFhe3VtbaTxl0GEePWve9JRfP2dLZqYQWt9UjOPtEmU1KiG/0RHb2Fja9MIm3blcZ+8mx0lZM9zSG0PHmnkbIjK3efVyAEeJcM371t07ryXikNNMtVCcq9l0v2QNk4fjG6jeBmQpUkJ1SoRkUnKF7RYi40PUOgHfeN6NbdE9JDf1Kqb6N0YGq6/SL9XutNY5vfqT/iP8Gt+EwOIRFsFDjiHUC2ulrbZnebn6jxqVf/ANGm55cuN+rKGeXliuuYZSGtcarbcbyzkIN8zjUsbqSNdCNBa3dNPn0m3kXlIfRvpu4d4lzDGwC5ixA2kG5vrLXKulFz3D7wi+Fx/aMfyNySa7EklaalQzKuZmZr5adNdjuQCeCgXOm3b+R62FAbolw6ohysz5GJbga7HrG1uyuXgxmOrYNlwtOghUM6opZmygNXQ1a7FjpqvQpfcoYb5mOU+Rv0VqWHw1GiysoWo1XKXZnbKDtDabbDTbwnzZ5X16e5y/LYZSXO97vU9dvNv+H/AIngjU6J6eHYm1mFKmQb30DWsT3HL3XOkyv/AA3gHAP6LRIO8Jl+7a3hMRy3ybhaKkVOTqhRRYVkbblFszZW0vxMu8w+UWelkc3KEi57stj5hgP3CdpMzjnerV8t8xymH4vzcKWSal3ZfPuav9cW5z4cJi8QlJStNKrqqjMQoDaC8m81+UKtPOqsQGBvf7JFjrsOp1kPnMHOMxLLfWvU2H7ZlfIoIJzXvY7fFZ3eY2LD1y9To84VyAQzAsWLOiADbl0a97er3iQa9w7qxuVZlJvtKsQTr4T3C1wlZauXMyNTZNbC6OGYEW1uAR3XvrLVWoWZmO1mLHxY3PzgXMFVCVEq5czIyMmthdHVjfjcC3deUu5JJO0kknvJuZe5NwFWu/RUUZ30OVRsB9ZidFHeSJ0rm96MkWz4x87beiQkIO5m7TeWUeMDQeQ+QsRinyUELAHrOdET2n2X+yLnunUubvo/oULPWPT1Br1hamp+zT9bxa/dabdh8OqKKaKFVRZVUAADgANkvwqkC2kqiICIiAiIgIiICIiAiIgIiICIiAiIgW6lNToQD4i8i1uSsO3boU29qmp+Yk6IGGqc2ME23C0fKmo+QEiVeZGAbbhwPZZx8mmyRA0+r6OcA2xHXwc/zXkOr6L8IezUrL+8h/km+RA5tV9FNP1MS6+0gb5Msh1fRVU9XFqR30iP5zOqxCaceq+jDGDsVaJ8WcfAUz85DqejjlAbqTey4+GYCdsiEslcHrcyOUV/suYcQ9P5B7yDV5rY1e1gqmnBGb7t59DxB0x82VOTcQnaw1ZbbL03Fra3uVltsdUXRnqLbYC7aeRn0tKWUHQgHxg0+a25Rc2u5a2zMqt968stWU6stInfejTHvss+j6/JVB9HoUm9qmh+YmPqc0OT224LDj2aSL90CTRq/Xz69RdAAijXRBlGvdKc07zX5gcnPtwwHsvVT4KwkCr6L+TzsWovhUY/evKunFs0Zp1yt6JcKezXrr50yPuSFV9EK+rjHHtUwfkwkNOU4tuo3hMrhX62prWCILpqQMznQH1Pqi41DzccT6IKxBC4tD402X5M0jn0a8p0zmp1qB2arUqo1hew0Tdc213mLO8SytWx1UMwOeo5At9KOsBdja+Y6fiT57FzXX+rKftVT/8Aa88xfMTlYjrqlS2y1YH4vbiffI1LkHlmioRcK4UXsFei41JJ9YnUkmbxuqzxMbljqM42U7GA934xkG4j4TBVKvKqdrCVj/7ct9wSK3L2JXt4Yr7VB1+JmuqOH4cm0ZJC5bP0D/uffWa9/wAVqD1qSA+0y7PIyrHc40q0zTyhSSpvnBGhB4CS5TRjw8plLY2M12qYek62JQU2ts6+HU064JOg+jNGoBvVHO6bHzkpNWxNOrh6wF6JCVAwKl1JIp3BsCQx1PCc35D5c6BiDd0YqWVWAYMvZqU29Vxr3HYdJtGG5NweIu1KuisdqqFU+dFyuT9xivACcM8b6e3yXMY45SZ3Um9XW53+xt/NvlXEinV/TxlSmBao4AJ25gRsbTeB75iuY9AAPUVcqOzMgO5SwCfBX8sp3yNQ5qKxGeoaoXYGICAeyjsW8MyeO6bThaApqFUGw36anQX0sBoAAAAAAAAAAJJL236a5rj8OdePCssz1vU1O3yPnHnA18ViD/fVPvtJXIW/wP3hIvK1ZunrWP7Wodg3u0mcjNe5PD8Z1eayIps7hEUszEBVUEsxtsAGpM3/AJuejOo9qmMPRrt6JCC59txongtz3ibjzD5Fo0sLSrLTUVatJWeoRd2zDNa51C67BpNrgQeTOTaOHQU6NNUUblG08SdrHvOsnREBERAREQEREBERAREQEREBERAREQEREBERAREQEREBERAREQEREBERAREQEREBERAREQEREBERAREQI9TCo2jIrDgyg/MTH1+bWCftYTDt40U+eWZiIGsV+YPJjixwdMezmT7pExtb0VcltsouvhWqH7zGbzEDnVT0R4L1K2JT2ain7yGWD6K2X9Xylil4XY2/yss6ZEDi2J9CtQklcWjX1OZGU34k5mvM5zW9FNKic+KcViNlNQVp7fXvrU8DZdxBnTYgUKoAAAsBoAN0riICIiAiIgIiICIiAiIgIiIH/9k=;" vertex="1" parent="1">
          <mxGeometry x="340" y="510" width="210" height="51.45" as="geometry" />
        </mxCell>
        <mxCell id="94u92ZBypq8RZjH0Q64Z-3" style="edgeStyle=none;html=1;labelBackgroundColor=none;startFill=0;endArrow=none;endFill=0;strokeWidth=2;fontFamily=Verdana;fontSize=12;entryX=0.543;entryY=-0.005;entryDx=0;entryDy=0;entryPerimeter=0;" edge="1" parent="1">
          <mxGeometry relative="1" as="geometry">
            <mxPoint x="409.99640553755745" y="556.3231156658406" as="sourcePoint" />
            <mxPoint x="410.34999999999997" y="715.9980000000002" as="targetPoint" />
          </mxGeometry>
        </mxCell>
        <mxCell id="94u92ZBypq8RZjH0Q64Z-8" value="incoming-traffic" style="edgeLabel;html=1;align=center;verticalAlign=middle;resizable=0;points=[];" vertex="1" connectable="0" parent="94u92ZBypq8RZjH0Q64Z-3">
          <mxGeometry x="-0.148" y="-1" relative="1" as="geometry">
            <mxPoint as="offset" />
          </mxGeometry>
        </mxCell>
        <mxCell id="94u92ZBypq8RZjH0Q64Z-5" value="" style="aspect=fixed;html=1;points=[];align=center;image;fontSize=12;image=img/lib/mscae/VM_Linux.svg;" vertex="1" parent="1">
          <mxGeometry x="400" y="728" width="70" height="64.4" as="geometry" />
        </mxCell>
        <mxCell id="94u92ZBypq8RZjH0Q64Z-6" style="edgeStyle=none;html=1;labelBackgroundColor=none;startFill=0;endArrow=none;endFill=0;strokeWidth=2;fontFamily=Verdana;fontSize=12;entryX=0.543;entryY=-0.005;entryDx=0;entryDy=0;entryPerimeter=0;" edge="1" parent="1">
          <mxGeometry relative="1" as="geometry">
            <mxPoint x="449.9964055375574" y="557.3231156658408" as="sourcePoint" />
            <mxPoint x="450.3499999999999" y="716.998" as="targetPoint" />
          </mxGeometry>
        </mxCell>
        <mxCell id="94u92ZBypq8RZjH0Q64Z-9" value="outgoing-traffic" style="edgeLabel;html=1;align=center;verticalAlign=middle;resizable=0;points=[];" vertex="1" connectable="0" parent="94u92ZBypq8RZjH0Q64Z-6">
          <mxGeometry x="0.4408" y="2" relative="1" as="geometry">
            <mxPoint as="offset" />
          </mxGeometry>
        </mxCell>
        <mxCell id="94u92ZBypq8RZjH0Q64Z-7" value="&lt;div style=&quot;box-sizing: border-box ; font-family: &amp;#34;segoe ui&amp;#34; , , &amp;#34;apple color emoji&amp;#34; , &amp;#34;segoe ui emoji&amp;#34; , sans-serif ; font-size: 14px&quot;&gt;192.168.35.95&lt;/div&gt;" style="text;html=1;align=center;verticalAlign=middle;resizable=0;points=[];autosize=1;strokeColor=none;" vertex="1" parent="1">
          <mxGeometry x="240" y="525.72" width="110" height="20" as="geometry" />
        </mxCell>
      </root>
    </mxGraphModel>
  </diagram>
</mxfile>
